<svg width="72" height="72" viewBox="0 0 72 72" fill="none" xmlns="http://www.w3.org/2000/svg">
<g filter="url(#filter0_d_1742_230287)">
<path d="M12 28C12 15.8497 21.8497 6 34 6H38C50.1503 6 60 15.8497 60 28V32C60 44.1503 50.1503 54 38 54H34C21.8497 54 12 44.1503 12 32V28Z" fill="white"/>
<path d="M35.8153 39.2386C39.5483 39.2386 42.267 37.0994 42.2585 34.1506C42.267 31.9688 40.9034 30.4006 38.4574 30.0511V29.9148C40.3494 29.5057 41.6193 28.0994 41.6108 26.1392C41.6193 23.4801 39.3523 21.3068 35.8665 21.3068C32.4744 21.3068 29.8494 23.3267 29.7812 26.25H32.8239C32.875 24.7841 34.2386 23.8722 35.8494 23.8722C37.4773 23.8722 38.5597 24.8608 38.5511 26.3267C38.5597 27.8523 37.2983 28.8665 35.4915 28.8665H33.9489V31.304H35.4915C37.6989 31.304 39.0114 32.4119 39.0028 33.9886C39.0114 35.5312 37.6733 36.5881 35.8068 36.5881C34.0511 36.5881 32.696 35.6761 32.6193 34.2528H29.4148C29.5 37.2017 32.1335 39.2386 35.8153 39.2386Z" fill="#229BF4"/>
</g>
<defs>
<filter id="filter0_d_1742_230287" x="0" y="0" width="72" height="72" filterUnits="userSpaceOnUse" color-interpolation-filters="sRGB">
<feFlood flood-opacity="0" result="BackgroundImageFix"/>
<feColorMatrix in="SourceAlpha" type="matrix" values="0 0 0 0 0 0 0 0 0 0 0 0 0 0 0 0 0 0 127 0" result="hardAlpha"/>
<feOffset dy="6"/>
<feGaussianBlur stdDeviation="6"/>
<feColorMatrix type="matrix" values="0 0 0 0 0.87451 0 0 0 0 0.882353 0 0 0 0 0.913725 0 0 0 0.24 0"/>
<feBlend mode="normal" in2="BackgroundImageFix" result="effect1_dropShadow_1742_230287"/>
<feBlend mode="normal" in="SourceGraphic" in2="effect1_dropShadow_1742_230287" result="shape"/>
</filter>
</defs>
</svg>
